<svg version="1.2" xmlns="http://www.w3.org/2000/svg" viewBox="0 0 31 31" width="31" height="31">
	<style>
		.s0 { fill: #cb8161 } 
		.s1 { fill: #cb8161;stroke: #10069f;stroke-linejoin: round;stroke-width: .9 } 
		.s2 { fill: #cb8161;stroke: #10069f;stroke-width: 2.4 } 
	</style>
	<path fill-rule="evenodd" class="s0" d="m19.57 4.47q0.06 0.01 0.11 0.04c0.22 0.15 1.63 0.98 1.7 1.05l1.38 1.46c0.07 0.07 0.82 1.52 0.96 1.75q0.03 0.05 0.03 0.11l0.19 2.09c0.01 0.12-0.07 0.21-0.19 0.21l-6.32 0.46c-0.16 0.01-0.25-0.14-0.42-0.31l-0.46-0.49q-0.08-0.08-0.07-0.19l0.79-6.3c0.02-0.12 0.11-0.19 0.23-0.17zm-2.38 6.46l3.52-1.59-1.76-1.87-1.78 3.44zm2.25-6.06l-1.59-0.22 1.12 2.18 1.23-0.54zm-2.49 5.48l1.69-3.27-1.02-2zm6.07 0.43l-1.95-1.13-3.35 1.51zm0.45-0.21l-0.14-1.6-1.46-0.89-0.53 1.25zm-2.49-1.54l0.54-1.26-1.07-1.12-1.22 0.54zm1.01-1.35l1.01 0.61-0.56-1.03-1.35-1.42-1-0.61 0.56 1.03z"/>
	<path class="s1" d="m17.13 4.27l-0.62 6.29-0.07 1.12 1.79-0.12 5.42-0.35 0.08-2.53-0.79-1.71-1.63-1.73-1.66-0.89z"/>
	<path fill-rule="evenodd" class="s2" d="m14 7.64v1.5c-4-2-8 3.5-7.74 8.71 0 5.01 2.62 8.93 6.74 8.93 4.5 0 6-5.57 6-9 0-1.64 0.01-2.39-0.5-3.64h1.5"/>
</svg>