<svg width="30" height="30" viewBox='0 0 30 30' fill="none" xmlns="http://www.w3.org/2000/svg">

<path d="M14.8379 25.2007C19.25 25.2007 22.8378 21.6128 22.8378 17.2008C22.8378 14.2007 21.1859 11.5128 18.6096 10.145L17.0299 12.0454C19.054 12.9089 20.4377 14.932 20.4377 17.2008C20.4377 20.289 17.9261 22.8006 14.8379 22.8006C11.7498 22.8006 9.2381 20.289 9.2381 17.2008C9.2381 14.9329 10.6219 12.9087 12.6459 12.0444L11.0615 10.1488C8.48985 11.5166 6.83789 14.2008 6.83789 17.2009C6.83789 21.613 10.4259 25.2007 14.8379 25.2007Z" fill="#10069F"/>
<path d="M19.2217 7.89193C19.2179 7.87225 19.2095 7.85162 19.202 7.83568C19.1898 7.80756 19.1739 7.78412 19.1579 7.75974C19.1495 7.74381 19.1335 7.72787 19.1223 7.71568L19.0942 7.6913L17.5219 6.11532C17.446 6.04406 17.3457 6 17.2379 6H12.4377C12.3299 6 12.2296 6.04406 12.1537 6.11626L10.5814 7.69224L10.5533 7.71662C10.5411 7.72881 10.5252 7.74475 10.5177 7.76068C10.5017 7.78506 10.4858 7.8085 10.4736 7.83662C10.4652 7.85256 10.4577 7.87225 10.4539 7.89288C10.4417 7.9285 10.438 7.96038 10.438 7.99975H19.2385C19.2376 7.96038 19.2339 7.9285 19.2217 7.89193Z" fill="#10069F"/>

<path d="M14.838 12.6962C15.2224 12.6962 15.5862 12.5283 15.8337 12.2283L18.6902 8.80078H10.9819L13.8423 12.2331C14.0898 12.5285 14.4536 12.6962 14.838 12.6962Z" fill="#10069F"/>
</svg>
