<svg width="30" height="30" viewBox="0 0 30 30" fill="none" xmlns="http://www.w3.org/2000/svg">
<path d="M18.2639 15.1393L16.4779 18.2546L12.9215 18.2547L11.1355 15.1393L12.9937 11.9038L16.4057 11.9038L18.2639 15.1393Z" stroke="#10069F"/>
<path d="M18.8696 7.6176L23.1832 15.1283L19.0249 22.3819L10.7347 22.3819L6.57642 15.1284L10.89 7.61765L18.8696 7.6176Z" stroke="#10069F" stroke-linejoin="round"/>
<line x1="16.4596" y1="11.7292" x2="19.0372" y2="7.72934" stroke="#10069F"/>
<line y1="-0.5" x2="4.75841" y2="-0.5" transform="matrix(0.541688 0.84058 0.84058 -0.541688 16.8799 18)" stroke="#10069F"/>
<line x1="13.1417" y1="11.9455" x2="10.6461" y2="8.23451" stroke="#10069F"/>
<line y1="-0.5" x2="4.47214" y2="-0.5" transform="matrix(-0.558049 0.829808 0.829808 0.558049 13.5566 18.3335)" stroke="#10069F"/>
<line x1="17.8799" y1="15" x2="22.8799" y2="15" stroke="#10069F"/>
<line x1="6.87988" y1="15" x2="11.8799" y2="15" stroke="#10069F"/>
<path d="M5.15563 15.4455L6.70278 18.1975H1.81856C1.12253 18.1975 0.549805 17.6345 0.549805 16.9416V13.5597C0.549805 12.8628 1.12253 12.2998 1.81856 12.2998H6.74249L5.15952 15.0478C5.15157 15.0557 5.15157 15.0675 5.14759 15.0754C5.14361 15.0832 5.13963 15.095 5.13566 15.1029C5.11975 15.1502 5.10781 15.1935 5.10781 15.2446V15.2486C5.10781 15.2958 5.11975 15.3391 5.13566 15.3824C5.13963 15.3943 5.13963 15.4021 5.14759 15.4179C5.15157 15.4297 5.15165 15.4376 5.15563 15.4455Z" fill="#10069F"/>
<path d="M29.1928 13.5557V16.9376C29.1928 17.6305 28.62 18.1935 27.924 18.1935H23.0398L24.5869 15.4415C24.5909 15.4336 24.5909 15.4258 24.5949 15.4179C24.6029 15.4061 24.6029 15.3982 24.6068 15.3825C24.6227 15.3392 24.6347 15.2959 24.6347 15.2486V15.2447C24.6347 15.1935 24.6227 15.1502 24.6068 15.1029C24.6029 15.0951 24.5989 15.0833 24.5949 15.0754C24.5909 15.0675 24.5909 15.0557 24.583 15.0478L23 12.2998H27.9239C28.62 12.2959 29.1928 12.8588 29.1928 13.5557Z" fill="#10069F"/>
</svg>
